<svg xmlns="http://www.w3.org/2000/svg" width="200" height="200" version="1.1">
  <!-- Taco Shell -->
  <path fill="#D2B48C" d="M100,20 C150,80 150,120 100,180 C50,120 50,80 100,20"></path>
  
  <!-- Taco Filling -->
  <path fill="#FFA500" d="M100,40 C140,80 140,120 100,160 C60,120 60,80 100,40"></path>
  
  <!-- Taco Toppings -->
  <circle fill="#FFD700" cx="70" cy="70" r="15"></circle>
  <circle fill="#FFD700" cx="130" cy="70" r="15"></circle>
  <circle fill="#FFD700" cx="100" cy="110" r="15"></circle>
  
  <!-- Taco Outline -->
  <path fill="none" stroke="#000000" stroke-width="2" d="M100,20 C150,80 150,120 100,180 C50,120 50,80 100,20 M100,40 C140,80 140,120 100,160 C60,120 60,80 100,40"></path>
</svg>
